<svg width="192" height="41" viewBox="0 0 192 41" fill="none" xmlns="http://www.w3.org/2000/svg">
<g clip-path="url(#clip0_1224_6106)">
<path d="M20.2727 40.304H0.272705V13.6399C0.272705 6.27311 6.24182 0.304001 13.6086 0.304001H33.6086V26.9681L20.2727 40.304Z" fill="url(#paint0_linear_1224_6106)"/>
<path d="M20.2727 26.9681H33.6086C33.6086 34.5511 28.8364 40.304 20.2727 40.304V26.9681Z" fill="#378EFF"/>
<path d="M33.606 11.4151H16.3838C13.6224 11.4151 11.3838 13.6537 11.3838 16.4151V17.5262C11.3838 20.2877 13.6224 22.5262 16.3838 22.5262H33.606V11.4151Z" fill="#14141F"/>
<path d="M33.606 9.19289H41.9394C44.7008 9.19289 46.9394 11.4315 46.9394 14.1929V15.304C46.9394 18.0654 44.7008 20.304 41.9394 20.304H33.606V9.19289Z" fill="#5DDFA9"/>
<path d="M33.606 9.19289H16.3838C13.6224 9.19289 11.3838 11.4315 11.3838 14.1929V15.304C11.3838 18.0654 13.6224 20.304 16.3838 20.304H33.606V9.19289Z" fill="#37B982"/>
<path d="M60.078 21.456H62.262L66.414 28.656H69.294L64.974 21.168C66.87 20.496 68.262 18.696 68.262 16.536C68.262 14.664 67.182 13.032 65.646 12.216C65.094 11.928 64.494 11.808 63.87 11.808H57.606V28.656H60.078V21.456ZM65.766 16.536C65.766 17.88 64.686 18.984 63.342 18.984H60.078V14.112H63.342C64.686 14.112 65.766 15.192 65.766 16.536Z" fill="#3A3A43"/>
<path d="M74.692 28.008C75.556 28.488 76.492 28.728 77.452 28.728C77.98 28.728 78.532 28.632 79.084 28.488C80.548 28.056 81.772 27.072 82.516 25.704L80.332 24.528C79.924 25.296 79.228 25.848 78.388 26.088C77.548 26.352 76.66 26.256 75.868 25.824C75.484 25.608 75.148 25.32 74.884 24.984L83.26 22.536C83.26 22.536 83.212 22.08 82.996 21.312C82.828 20.784 82.588 20.28 82.3 19.824C81.772 19.008 81.052 18.336 80.212 17.88C78.868 17.136 77.308 16.968 75.82 17.4C74.356 17.832 73.132 18.816 72.388 20.184C71.644 21.528 71.476 23.088 71.908 24.576C71.908 24.576 72.412 26.76 74.692 28.008ZM74.572 21.36C74.98 20.592 75.676 20.04 76.516 19.8C76.828 19.704 77.14 19.656 77.452 19.656C78.004 19.656 78.532 19.8 79.012 20.064C79.42 20.28 79.756 20.544 80.02 20.904L74.188 22.608C74.236 22.176 74.356 21.768 74.572 21.36Z" fill="#3A3A43"/>
<path d="M90.1247 28.8C90.2687 28.8 90.4127 28.8 90.5567 28.776C91.8767 28.68 93.0527 28.08 93.7967 27.144C94.4207 26.376 94.7087 25.416 94.5887 24.48C94.2767 21.984 91.8767 21.48 90.6047 21.192C90.2687 21.12 89.9567 21.072 89.7407 20.976C88.8287 20.616 89.0207 20.136 89.0927 19.968C89.2367 19.656 89.8847 19.392 90.6287 19.536C90.7487 19.56 91.3727 19.824 91.3727 20.184L93.8687 20.136C93.8207 18.336 92.1647 17.328 91.1087 17.112C89.2367 16.728 87.4367 17.52 86.8127 19.008C86.0927 20.736 86.9087 22.488 88.7807 23.28C89.1647 23.448 89.6207 23.544 90.0767 23.64C91.5167 23.928 92.0447 24.168 92.1167 24.792C92.1647 25.056 92.0687 25.32 91.8767 25.584C91.5407 25.968 90.9887 26.256 90.3407 26.304C89.2607 26.4 88.2047 25.8 88.1087 25.032L85.6607 25.344C85.9007 27.312 87.8687 28.8 90.1247 28.8Z" fill="#3A3A43"/>
<path d="M101.948 28.8C102.86 28.8 103.7 28.536 104.42 28.104V28.656H106.916V17.424H104.42V23.832C104.42 25.2 103.316 26.304 101.948 26.304C100.58 26.304 99.4765 25.2 99.4765 23.832V17.328H97.0045V23.832C97.0045 26.568 99.2125 28.8 101.948 28.8Z" fill="#3A3A43"/>
<path d="M112.531 22.128C112.531 20.76 113.539 19.656 114.787 19.656C116.011 19.656 117.019 20.76 117.019 22.128V28.656H119.515V22.128C119.515 20.76 120.523 19.656 121.747 19.656C122.995 19.656 124.003 20.76 124.003 22.128V28.656H126.475V22.128C126.475 19.392 124.363 17.184 121.747 17.184C120.355 17.184 119.131 17.808 118.267 18.816C117.403 17.808 116.155 17.184 114.787 17.184C113.971 17.184 113.203 17.4 112.531 17.784V17.328H110.059V28.656H112.531V22.128Z" fill="#3A3A43"/>
<path d="M131.759 17.328H129.287V28.656H131.759V17.328ZM132.167 14.472C132.167 13.584 131.423 12.864 130.535 12.864C129.623 12.864 128.903 13.584 128.903 14.472C128.903 15.36 129.623 16.08 130.535 16.08C131.423 16.08 132.167 15.36 132.167 14.472Z" fill="#3A3A43"/>
<path d="M143.815 28.608V26.16H138.919L144.271 17.304H134.839V19.728H139.903L134.575 28.608H143.815Z" fill="#3A3A43"/>
<path d="M149.669 28.008C150.533 28.488 151.469 28.728 152.429 28.728C152.957 28.728 153.509 28.632 154.061 28.488C155.525 28.056 156.749 27.072 157.493 25.704L155.309 24.528C154.901 25.296 154.205 25.848 153.365 26.088C152.525 26.352 151.637 26.256 150.845 25.824C150.461 25.608 150.125 25.32 149.861 24.984L158.237 22.536C158.237 22.536 158.189 22.08 157.973 21.312C157.805 20.784 157.565 20.28 157.277 19.824C156.749 19.008 156.029 18.336 155.189 17.88C153.845 17.136 152.285 16.968 150.797 17.4C149.333 17.832 148.109 18.816 147.365 20.184C146.621 21.528 146.453 23.088 146.885 24.576C146.885 24.576 147.389 26.76 149.669 28.008ZM149.549 21.36C149.957 20.592 150.653 20.04 151.493 19.8C151.805 19.704 152.117 19.656 152.429 19.656C152.981 19.656 153.509 19.8 153.989 20.064C154.397 20.28 154.733 20.544 154.997 20.904L149.165 22.608C149.213 22.176 149.333 21.768 149.549 21.36Z" fill="#3A3A43"/>
<path d="M163.109 22.128C163.109 20.76 164.117 19.656 165.365 19.656C166.589 19.656 167.597 20.76 167.597 22.128V28.656H170.093V22.128C170.093 20.76 171.101 19.656 172.325 19.656C173.573 19.656 174.581 20.76 174.581 22.128V28.656H177.053V22.128C177.053 19.392 174.941 17.184 172.325 17.184C170.933 17.184 169.709 17.808 168.845 18.816C167.981 17.808 166.733 17.184 165.365 17.184C164.549 17.184 163.781 17.4 163.109 17.784V17.328H160.637V28.656H163.109V22.128Z" fill="#3A3A43"/>
<path d="M182.481 28.008C183.345 28.488 184.281 28.728 185.241 28.728C185.769 28.728 186.321 28.632 186.873 28.488C188.337 28.056 189.561 27.072 190.305 25.704L188.121 24.528C187.713 25.296 187.017 25.848 186.177 26.088C185.337 26.352 184.449 26.256 183.657 25.824C183.273 25.608 182.937 25.32 182.673 24.984L191.049 22.536C191.049 22.536 191.001 22.08 190.785 21.312C190.617 20.784 190.377 20.28 190.089 19.824C189.561 19.008 188.841 18.336 188.001 17.88C186.657 17.136 185.097 16.968 183.609 17.4C182.145 17.832 180.921 18.816 180.177 20.184C179.433 21.528 179.265 23.088 179.697 24.576C179.697 24.576 180.201 26.76 182.481 28.008ZM182.361 21.36C182.769 20.592 183.465 20.04 184.305 19.8C184.617 19.704 184.929 19.656 185.241 19.656C185.793 19.656 186.321 19.8 186.801 20.064C187.209 20.28 187.545 20.544 187.809 20.904L181.977 22.608C182.025 22.176 182.145 21.768 182.361 21.36Z" fill="#3A3A43"/>
</g>
<defs>
<linearGradient id="paint0_linear_1224_6106" x1="3.7785" y1="4.40439" x2="28.2341" y2="33.9411" gradientUnits="userSpaceOnUse">
<stop stop-color="#0866F5"/>
<stop offset="1" stop-color="#0043A6"/>
</linearGradient>
<clipPath id="clip0_1224_6106">
<rect width="190.776" height="40" fill="white" transform="translate(0.272705 0.304001)"/>
</clipPath>
</defs>
</svg>
